<?xml version="1.0" encoding="utf-8"?>
<!-- Generator: Adobe Illustrator 19.0.0, SVG Export Plug-In . SVG Version: 6.00 Build 0)  -->
<svg version="1.1" id="Capa_1" xmlns="http://www.w3.org/2000/svg" xmlns:xlink="http://www.w3.org/1999/xlink" x="0px" y="0px"
	 viewBox="0 0 721.8 132.4" style="enable-background:new 0 0 721.8 132.4;" xml:space="preserve">
<style type="text/css">
	.st0{fill:none;stroke:#03A5B1;stroke-miterlimit:10;}
	.st1{fill:#03A5B1;}
</style>
<g id="XMLID_101_">
	<g id="XMLID_100_">
		<path id="XMLID_193_" class="st0" d="M66.9,12.8L56.3,28.1C52,25.5,46.9,23,40.5,23c-5.2,0-11,2.9-11,8.5c0,5.4,9.9,8.5,14.8,10.2
			c15.4,4.1,28.2,13.6,28.2,29.3v0v0c0,15.2-12.6,30.1-32.6,30.1c-13.3,0-23.5-4.9-32.7-11.9l9.6-16.3c6.5,4.8,14,9,22.8,9
			c6.4,0,13.6-3.1,13.6-10.8c0-6.8-10.2-10-16.5-11.9c-13.1-3.6-26.5-11.5-26.5-27.6c0-15.2,13.8-27.3,30.2-27.3
			C53,4.2,60.2,8.6,66.9,12.8z"/>
		<path id="XMLID_195_" class="st0" d="M128.2,6.4C147.6,6.4,163,23,163,42.7c0,19.7-15.4,36.3-34.8,36.3h-15.1v19.8H94.4V6.4H128.2
			z M113.1,60.2h15.1c8.7,0,16.1-7.5,16.1-17.6c0-10.1-7.4-17.6-16.1-17.6h-15.1V60.2z"/>
		<path id="XMLID_198_" class="st0" d="M245.8,6.4v18.9h-42.2v18.7h40.6v17.4h-40.6v18.7h42.2v18.9h-61V6.4H245.8z"/>
		<path id="XMLID_200_" class="st0" d="M319.6,6.4l33.7,92.4h-20L326.1,79h-32.9l-7.2,19.8h-20l33.7-92.4H319.6z M300,60.1h19.2
			l-9.6-26.3L300,60.1z"/>
		<path id="XMLID_203_" class="st0" d="M392.1,6.4v50.1l39.9-50.1h23.8L419,52.7l36.8,46.1h-24l-24.7-31.1l-15.1,19v12.1h-18.7V6.4
			L392.1,6.4z"/>
		<path id="XMLID_205_" class="st0" d="M536.9,6.4v18.9h-42.2v18.7h40.6v17.4h-40.6v18.7h42.2v18.9h-61V6.4H536.9z"/>
		<path id="XMLID_207_" class="st0" d="M594.5,6.4c19.4,0,34.8,16.6,34.8,36.3c0,14.6-8.5,27.6-20.9,33.2l23.2,22.9h-25L586.5,79
			h-7.1v19.8h-18.7V6.4H594.5z M579.4,60.2h15.1c8.7,0,16.1-7.5,16.1-17.6s-7.4-17.6-16.1-17.6h-15.1V60.2z"/>
		<path id="XMLID_210_" class="st0" d="M708,12.8l-10.6,15.3c-4.3-2.6-9.4-5.1-15.9-5.1c-5.2,0-11,2.9-11,8.5
			c0,5.4,9.8,8.5,14.8,10.2c15.4,4.1,28.2,13.6,28.2,29.3v0v0c0,15.2-12.6,30.1-32.6,30.1c-13.3,0-23.5-4.9-32.7-11.9l9.6-16.3
			c6.5,4.8,14,9,22.8,9c6.4,0,13.6-3.1,13.6-10.8c0-6.8-10.2-10-16.5-11.9c-13.1-3.6-26.5-11.5-26.5-27.6
			c0-15.2,13.8-27.3,30.2-27.3C694,4.2,701.3,8.6,708,12.8z"/>
	</g>
	<g id="XMLID_99_">
		<path id="XMLID_174_" class="st0" d="M66,24.3L55.4,39.6c-4.3-2.6-9.4-5.1-15.9-5.1c-5.2,0-11,2.9-11,8.5c0,5.4,9.9,8.5,14.8,10.2
			c15.4,4.1,28.2,13.6,28.2,29.3v0v0c0,15.2-12.6,30.1-32.6,30.1c-13.3,0-23.5-4.9-32.7-11.9l9.6-16.3c6.5,4.8,14,9,22.8,9
			c6.4,0,13.6-3.1,13.6-10.8c0-6.8-10.2-10-16.5-11.9C22.6,67.1,9.3,59.1,9.3,43.1c0-15.2,13.8-27.3,30.2-27.3
			C52,15.7,59.3,20.1,66,24.3z"/>
		<path id="XMLID_176_" class="st0" d="M127.3,18c19.4,0,34.8,16.6,34.8,36.3c0,19.7-15.4,36.3-34.8,36.3h-15.1v19.8H93.4V18H127.3z
			 M112.2,71.8h15.1c8.7,0,16.1-7.5,16.1-17.6c0-10.1-7.4-17.6-16.1-17.6h-15.1V71.8z"/>
		<path id="XMLID_179_" class="st0" d="M244.9,18v18.9h-42.2v18.7h40.6v17.4h-40.6v18.7h42.2v18.9h-61V18H244.9z"/>
		<path id="XMLID_181_" class="st0" d="M318.7,18l33.7,92.4h-20l-7.2-19.8h-32.9l-7.2,19.8h-20L298.7,18H318.7z M299.1,71.7h19.2
			l-9.6-26.3L299.1,71.7z"/>
		<path id="XMLID_184_" class="st0" d="M391.1,18v50.1L431,18h23.8l-36.8,46.3l36.8,46.1h-24l-24.7-31.1l-15.1,19v12.1h-18.7V18
			L391.1,18z"/>
		<path id="XMLID_186_" class="st0" d="M536,18v18.9h-42.2v18.7h40.6v17.4h-40.6v18.7H536v18.9h-61V18H536z"/>
		<path id="XMLID_188_" class="st0" d="M593.5,18c19.4,0,34.8,16.6,34.8,36.3c0,14.6-8.5,27.6-20.9,33.2l23.2,22.9h-25l-20.1-19.8
			h-7.1v19.8h-18.7V18H593.5z M578.4,71.8h15.1c8.7,0,16.1-7.5,16.1-17.6s-7.4-17.6-16.1-17.6h-15.1V71.8z"/>
		<path id="XMLID_191_" class="st0" d="M707,24.3l-10.6,15.3c-4.3-2.6-9.4-5.1-15.9-5.1c-5.2,0-11,2.9-11,8.5
			c0,5.4,9.8,8.5,14.8,10.2c15.4,4.1,28.2,13.6,28.2,29.3v0v0c0,15.2-12.6,30.1-32.6,30.1c-13.3,0-23.5-4.9-32.7-11.9l9.6-16.3
			c6.5,4.8,14,9,22.8,9c6.4,0,13.6-3.1,13.6-10.8c0-6.8-10.2-10-16.5-11.9c-13.1-3.6-26.5-11.5-26.5-27.6
			c0-15.2,13.8-27.3,30.2-27.3C693.1,15.7,700.3,20.1,707,24.3z"/>
	</g>
	<g id="XMLID_74_">
		<path id="XMLID_155_" class="st0" d="M66,38.6L55.4,53.9c-4.3-2.6-9.4-5.1-15.9-5.1c-5.2,0-11,2.9-11,8.5c0,5.4,9.9,8.5,14.8,10.2
			C58.8,71.6,71.6,81,71.6,96.7v0v0c0,15.2-12.6,30.1-32.6,30.1c-13.3,0-23.5-4.9-32.7-11.9l9.6-16.3c6.5,4.8,14,9,22.8,9
			c6.4,0,13.6-3.1,13.6-10.8c0-6.8-10.2-10-16.5-11.9C22.6,81.3,9.3,73.3,9.3,57.3C9.3,42.1,23.1,30,39.5,30
			C52,30,59.3,34.4,66,38.6z"/>
		<path id="XMLID_157_" class="st0" d="M127.3,32.2c19.4,0,34.8,16.6,34.8,36.3c0,19.7-15.4,36.3-34.8,36.3h-15.1v19.8H93.4V32.2
			H127.3z M112.2,86h15.1c8.7,0,16.1-7.5,16.1-17.6c0-10.1-7.4-17.6-16.1-17.6h-15.1V86z"/>
		<path id="XMLID_160_" class="st0" d="M244.9,32.2v18.9h-42.2v18.7h40.6v17.4h-40.6v18.7h42.2v18.9h-61V32.2H244.9z"/>
		<path id="XMLID_162_" class="st0" d="M318.7,32.2l33.7,92.4h-20l-7.2-19.8h-32.9l-7.2,19.8h-20l33.7-92.4H318.7z M299.1,85.9h19.2
			l-9.6-26.3L299.1,85.9z"/>
		<path id="XMLID_165_" class="st0" d="M391.1,32.2v50.1L431,32.2h23.8l-36.8,46.3l36.8,46.1h-24l-24.7-31.1l-15.1,19v12.1h-18.7
			V32.2L391.1,32.2z"/>
		<path id="XMLID_167_" class="st0" d="M536,32.2v18.9h-42.2v18.7h40.6v17.4h-40.6v18.7H536v18.9h-61V32.2H536z"/>
		<path id="XMLID_169_" class="st0" d="M593.5,32.2c19.4,0,34.8,16.6,34.8,36.3c0,14.6-8.5,27.6-20.9,33.2l23.2,22.9h-25l-20.1-19.8
			h-7.1v19.8h-18.7V32.2H593.5z M578.4,86h15.1c8.7,0,16.1-7.5,16.1-17.6s-7.4-17.6-16.1-17.6h-15.1V86z"/>
		<path id="XMLID_172_" class="st0" d="M707,38.6l-10.6,15.3c-4.3-2.6-9.4-5.1-15.9-5.1c-5.2,0-11,2.9-11,8.5
			c0,5.4,9.8,8.5,14.8,10.2c15.4,4.1,28.2,13.6,28.2,29.3v0v0c0,15.2-12.6,30.1-32.6,30.1c-13.3,0-23.5-4.9-32.7-11.9l9.6-16.3
			c6.5,4.8,14,9,22.8,9c6.4,0,13.6-3.1,13.6-10.8c0-6.8-10.2-10-16.5-11.9c-13.1-3.6-26.5-11.5-26.5-27.6
			c0-15.2,13.8-27.3,30.2-27.3C693.1,30,700.3,34.4,707,38.6z"/>
	</g>
	<g id="XMLID_1_">
		<path id="XMLID_136_" class="st1" d="M66.9,26.5L56.3,41.8c-4.3-2.6-9.4-5.1-15.9-5.1c-5.2,0-11,2.9-11,8.5
			c0,5.4,9.9,8.5,14.8,10.2C59.7,59.5,72.5,69,72.5,84.7v0v0c0,15.2-12.6,30.1-32.6,30.1c-13.3,0-23.5-4.9-32.7-11.9l9.6-16.3
			c6.5,4.8,14,9,22.8,9c6.4,0,13.6-3.1,13.6-10.8c0-6.8-10.2-10-16.5-11.9c-13.1-3.6-26.5-11.5-26.5-27.6
			c0-15.2,13.8-27.3,30.2-27.3C53,17.9,60.2,22.3,66.9,26.5z"/>
		<path id="XMLID_138_" class="st1" d="M128.2,20.1c19.4,0,34.8,16.6,34.8,36.3c0,19.7-15.4,36.3-34.8,36.3h-15.1v19.8H94.4V20.1
			H128.2z M113.1,74h15.1c8.7,0,16.1-7.5,16.1-17.6c0-10.1-7.4-17.6-16.1-17.6h-15.1V74z"/>
		<path id="XMLID_141_" class="st1" d="M245.8,20.2V39h-42.2v18.7h40.6V75h-40.6v18.7h42.2v18.9h-61V20.2H245.8z"/>
		<path id="XMLID_143_" class="st1" d="M319.6,20.1l33.7,92.4h-20l-7.2-19.8h-32.9l-7.2,19.8h-20l33.7-92.4H319.6z M300,73.9h19.2
			l-9.6-26.3L300,73.9z"/>
		<path id="XMLID_146_" class="st1" d="M392.1,20.1v50.1l39.9-50.1h23.8L419,66.5l36.8,46.1h-24l-24.7-31.1l-15.1,19v12.1h-18.7
			V20.1L392.1,20.1z"/>
		<path id="XMLID_148_" class="st1" d="M536.9,20.2V39h-42.2v18.7h40.6V75h-40.6v18.7h42.2v18.9h-61V20.2H536.9z"/>
		<path id="XMLID_150_" class="st1" d="M594.5,20.1c19.4,0,34.8,16.6,34.8,36.3c0,14.6-8.5,27.6-20.9,33.2l23.2,22.9h-25l-20.1-19.8
			h-7.1v19.8h-18.7V20.1H594.5z M579.4,74h15.1c8.7,0,16.1-7.5,16.1-17.6s-7.4-17.6-16.1-17.6h-15.1V74z"/>
		<path id="XMLID_153_" class="st1" d="M708,26.5l-10.6,15.3c-4.3-2.6-9.4-5.1-15.9-5.1c-5.2,0-11,2.9-11,8.5
			c0,5.4,9.8,8.5,14.8,10.2c15.4,4.1,28.2,13.6,28.2,29.3v0v0c0,15.2-12.6,30.1-32.6,30.1c-13.3,0-23.5-4.9-32.7-11.9l9.6-16.3
			c6.5,4.8,14,9,22.8,9c6.4,0,13.6-3.1,13.6-10.8c0-6.8-10.2-10-16.5-11.9c-13.1-3.6-26.5-11.5-26.5-27.6
			c0-15.2,13.8-27.3,30.2-27.3C694,17.9,701.3,22.3,708,26.5z"/>
	</g>
</g>
</svg>
