<?xml version="1.0" encoding="utf-8"?>
<!-- Generator: Adobe Illustrator 19.0.0, SVG Export Plug-In . SVG Version: 6.00 Build 0)  -->
<svg version="1.1" id="Capa_1" xmlns="http://www.w3.org/2000/svg" xmlns:xlink="http://www.w3.org/1999/xlink" x="0px" y="0px"
	 viewBox="0 0 555.1 50.3" style="enable-background:new 0 0 555.1 50.3;" xml:space="preserve">
<style type="text/css">
	.st0{clip-path:url(#XMLID_170_);}
	.st1{fill:#03A5B1;stroke:#03A5B1;stroke-width:1.2965;stroke-miterlimit:10;}
	.st2{fill:#03A5B1;stroke:#03A5B1;stroke-miterlimit:10;}
	.st3{clip-path:url(#XMLID_171_);}
</style>
<g id="XMLID_73_">
	<g id="XMLID_11_">
		<defs>
			<polygon id="XMLID_4_" points="398.3,28.8 574.2,18.4 559.1,-0.7 398.3,-5.9 			"/>
		</defs>
		<clipPath id="XMLID_170_">
			<use xlink:href="#XMLID_4_"  style="overflow:visible;"/>
		</clipPath>
		<g id="XMLID_2_" class="st0">
			<path id="XMLID_147_" class="st1" d="M423.9,24l-9.5,9.8h13v7h-24.2v-6.3l15.4-15.8c2.3-2.4,0.8-6.4-2.9-6.5
				c-2.4-0.1-4.4,1.7-5,4.1l-7.1-1.8c1.5-5.1,5.4-9.6,12-9.6C425.9,4.9,430.9,16.7,423.9,24z"/>
			<path id="XMLID_149_" class="st1" d="M471.7,23.3c0,10.1-8.2,18.3-18.4,18.3c-10.2,0-18.4-8.2-18.4-18.3s8.2-18.3,18.4-18.3
				C463.5,4.9,471.7,13.1,471.7,23.3z M442,23.3c0,6.2,5.1,11.3,11.3,11.3c6.2,0,11.3-5.1,11.3-11.3c0-6.2-5.1-11.3-11.3-11.3
				C447,12,442,17,442,23.3z"/>
			<path id="XMLID_152_" class="st1" d="M501.4,24l-9.5,9.8h13v7h-24.2v-6.3l15.4-15.8c2.3-2.4,0.8-6.4-2.9-6.5
				c-2.4-0.1-4.4,1.7-5,4.1l-7.1-1.8c1.5-5.1,5.4-9.6,12-9.6C503.4,4.9,508.5,16.7,501.4,24z"/>
			<path id="XMLID_154_" class="st1" d="M549.3,23.3c0,10.1-8.3,18.3-18.4,18.3c-10.2,0-18.4-8.2-18.4-18.3s8.3-18.3,18.4-18.3
				S549.3,13.1,549.3,23.3z M519.5,23.3c0,6.2,5.1,11.3,11.3,11.3c6.2,0,11.3-5.1,11.3-11.3c0-6.2-5.1-11.3-11.3-11.3
				S519.5,17,519.5,23.3z"/>
		</g>
	</g>
	<g id="XMLID_75_">
		<path id="XMLID_76_" class="st2" d="M10.9,7h15.8v7.2h-16V21h15.5v7.2H10.7V42H3.5V7H10.9z"/>
		<path id="XMLID_78_" class="st2" d="M42.9,7v21.3c0,4.5,3.9,7.2,6.8,7.2c2.9,0,6.8-2.6,6.8-7.2V7h7.3v21.6
			c0,8.3-6.5,14.3-14.1,14.3c-7.6,0-14.1-6-14.1-14.3V7H42.9z"/>
		<path id="XMLID_80_" class="st2" d="M100.9,7v7.2H90.6V42h-7.4V14.2H72.9V7H100.9z"/>
		<path id="XMLID_82_" class="st2" d="M117.2,7v21.3c0,4.5,3.9,7.2,6.8,7.2c2.9,0,6.8-2.6,6.8-7.2V7h7.3v21.6
			c0,8.3-6.5,14.3-14.1,14.3c-7.6,0-14.1-6-14.1-14.3V7H117.2z"/>
		<path id="XMLID_84_" class="st2" d="M159.9,7c7.4,0,13.2,6.3,13.2,13.7c0,5.5-3.2,10.4-7.9,12.6L174,42h-9.5l-7.6-7.5h-2.7V42
			h-7.1V7H159.9z M154.2,27.4h5.7c3.3,0,6.1-2.8,6.1-6.6c0-3.8-2.8-6.6-6.1-6.6h-5.7V27.4z"/>
		<path id="XMLID_87_" class="st2" d="M218.1,24.5c0,10.1-8.2,18.3-18.4,18.3c-10.2,0-18.4-8.2-18.4-18.3s8.2-18.3,18.4-18.3
			C209.9,6.1,218.1,14.3,218.1,24.5z M188.4,24.5c0,6.2,5.1,11.3,11.3,11.3S211,30.7,211,24.5c0-6.2-5.1-11.3-11.3-11.3
			C193.5,13.2,188.4,18.2,188.4,24.5z"/>
		<path id="XMLID_90_" class="st2" d="M233.8,7v27.9h15.9V42h-23.3V7H233.8z"/>
		<path id="XMLID_92_" class="st2" d="M292.8,24.5c0,10.1-8.3,18.3-18.4,18.3c-10.2,0-18.4-8.2-18.4-18.3s8.2-18.3,18.4-18.3
			S292.8,14.3,292.8,24.5z M263.1,24.5c0,6.2,5.1,11.3,11.3,11.3c6.2,0,11.3-5.1,11.3-11.3c0-6.2-5.1-11.3-11.3-11.3
			C268.1,13.2,263.1,18.2,263.1,24.5z"/>
		<path id="XMLID_95_" class="st2" d="M332.5,10.6l-3.7,5.4c-4.1-2.6-6.9-3-9.6-3c-5.7,0-11.2,5.3-11.2,11.5s5.5,11.5,11.2,11.5
			c3.6,0,5.8-0.8,8.4-2.2v-5h-4.6v-6.9h11.2v15.3c-3.3,2.6-7,5.7-15,5.7c-9.6,0-18.5-7-18.5-18.3s8.9-18.3,18.5-18.3
			C323.8,6.1,328.3,7.6,332.5,10.6z"/>
		<path id="XMLID_97_" class="st2" d="M347.8,7l7.7,15.4L363.2,7h8l-12.1,24.2V42h-7.1V31.2L339.8,7H347.8z"/>
	</g>
	<g id="XMLID_7_">
		<defs>
			<polygon id="XMLID_1_" points="567.9,18.6 392,29 407.1,48.1 567.9,53.3 			"/>
		</defs>
		<clipPath id="XMLID_171_">
			<use xlink:href="#XMLID_1_"  style="overflow:visible;"/>
		</clipPath>
		<g id="XMLID_136_" class="st3">
			<path id="XMLID_137_" class="st1" d="M426.1,23.1l-9.5,9.8h13v7h-24.2v-6.3l15.4-15.8c2.3-2.4,0.8-6.4-2.9-6.5
				c-2.4-0.1-4.4,1.7-5,4.1l-7.1-1.8c1.5-5.1,5.4-9.6,12-9.6C428.1,4,433.2,15.8,426.1,23.1z"/>
			<path id="XMLID_139_" class="st1" d="M474,22.4c0,10.1-8.3,18.3-18.4,18.3c-10.2,0-18.4-8.2-18.4-18.3S445.3,4,455.5,4
				S474,12.3,474,22.4z M444.2,22.4c0,6.2,5.1,11.3,11.3,11.3c6.2,0,11.3-5.1,11.3-11.3c0-6.2-5.1-11.3-11.3-11.3
				S444.2,16.2,444.2,22.4z"/>
			<path id="XMLID_142_" class="st1" d="M503.7,23.1l-9.5,9.8h13v7h-24.2v-6.3l15.4-15.8c2.3-2.4,0.8-6.4-2.9-6.5
				c-2.4-0.1-4.4,1.7-5,4.1l-7.1-1.8c1.5-5.1,5.4-9.6,12-9.6C505.7,4,510.7,15.8,503.7,23.1z"/>
			<path id="XMLID_144_" class="st1" d="M551.5,22.4c0,10.1-8.2,18.3-18.4,18.3c-10.2,0-18.4-8.2-18.4-18.3S522.9,4,533.1,4
				C543.3,4,551.5,12.3,551.5,22.4z M521.8,22.4c0,6.2,5.1,11.3,11.3,11.3c6.2,0,11.3-5.1,11.3-11.3c0-6.2-5.1-11.3-11.3-11.3
				C526.8,11.1,521.8,16.2,521.8,22.4z"/>
		</g>
	</g>
</g>
</svg>
